%TF.GenerationSoftware,KiCad,Pcbnew,7.0.5-7.0.5~ubuntu20.04.1*%
%TF.CreationDate,2023-06-14T09:42:23-05:00*%
%TF.ProjectId,Gotchiplant,476f7463-6869-4706-9c61-6e742e6b6963,rev?*%
%TF.SameCoordinates,Original*%
%TF.FileFunction,Copper,L2,Bot*%
%TF.FilePolarity,Positive*%
%FSLAX46Y46*%
G04 Gerber Fmt 4.6, Leading zero omitted, Abs format (unit mm)*
G04 Created by KiCad (PCBNEW 7.0.5-7.0.5~ubuntu20.04.1) date 2023-06-14 09:42:23*
%MOMM*%
%LPD*%
G01*
G04 APERTURE LIST*
G04 Aperture macros list*
%AMRoundRect*
0 Rectangle with rounded corners*
0 $1 Rounding radius*
0 $2 $3 $4 $5 $6 $7 $8 $9 X,Y pos of 4 corners*
0 Add a 4 corners polygon primitive as box body*
4,1,4,$2,$3,$4,$5,$6,$7,$8,$9,$2,$3,0*
0 Add four circle primitives for the rounded corners*
1,1,$1+$1,$2,$3*
1,1,$1+$1,$4,$5*
1,1,$1+$1,$6,$7*
1,1,$1+$1,$8,$9*
0 Add four rect primitives between the rounded corners*
20,1,$1+$1,$2,$3,$4,$5,0*
20,1,$1+$1,$4,$5,$6,$7,0*
20,1,$1+$1,$6,$7,$8,$9,0*
20,1,$1+$1,$8,$9,$2,$3,0*%
G04 Aperture macros list end*
%TA.AperFunction,ComponentPad*%
%ADD10R,1.600000X1.600000*%
%TD*%
%TA.AperFunction,ComponentPad*%
%ADD11O,1.600000X1.600000*%
%TD*%
%TA.AperFunction,ComponentPad*%
%ADD12RoundRect,0.571500X-0.571500X0.571500X-0.571500X-0.571500X0.571500X-0.571500X0.571500X0.571500X0*%
%TD*%
%TA.AperFunction,ComponentPad*%
%ADD13C,2.286000*%
%TD*%
%TA.AperFunction,ComponentPad*%
%ADD14R,3.500000X3.500000*%
%TD*%
%TA.AperFunction,ComponentPad*%
%ADD15RoundRect,0.750000X0.750000X1.000000X-0.750000X1.000000X-0.750000X-1.000000X0.750000X-1.000000X0*%
%TD*%
%TA.AperFunction,ComponentPad*%
%ADD16RoundRect,0.875000X0.875000X0.875000X-0.875000X0.875000X-0.875000X-0.875000X0.875000X-0.875000X0*%
%TD*%
%TA.AperFunction,ComponentPad*%
%ADD17RoundRect,0.571500X-0.571500X-0.571500X0.571500X-0.571500X0.571500X0.571500X-0.571500X0.571500X0*%
%TD*%
%TA.AperFunction,ComponentPad*%
%ADD18RoundRect,0.571500X0.571500X-0.571500X0.571500X0.571500X-0.571500X0.571500X-0.571500X-0.571500X0*%
%TD*%
%TA.AperFunction,ViaPad*%
%ADD19C,1.020000*%
%TD*%
%TA.AperFunction,Conductor*%
%ADD20C,1.300000*%
%TD*%
%TA.AperFunction,Conductor*%
%ADD21C,0.900000*%
%TD*%
G04 APERTURE END LIST*
D10*
%TO.P,A1,1,D1/TX*%
%TO.N,unconnected-(A1-D1{slash}TX-Pad1)*%
X39116000Y-24384000D03*
D11*
%TO.P,A1,2,D0/RX*%
%TO.N,unconnected-(A1-D0{slash}RX-Pad2)*%
X39116000Y-26924000D03*
%TO.P,A1,3,~{RESET}*%
%TO.N,unconnected-(A1-~{RESET}-Pad3)*%
X39116000Y-29464000D03*
%TO.P,A1,4,GND*%
%TO.N,GND*%
X39116000Y-32004000D03*
%TO.P,A1,5,D2*%
%TO.N,Net-(A1-D2)*%
X39116000Y-34544000D03*
%TO.P,A1,6,D3*%
%TO.N,unconnected-(A1-D3-Pad6)*%
X39116000Y-37084000D03*
%TO.P,A1,7,D4*%
%TO.N,Net-(A1-D4)*%
X39116000Y-39624000D03*
%TO.P,A1,8,D5*%
%TO.N,unconnected-(A1-D5-Pad8)*%
X39116000Y-42164000D03*
%TO.P,A1,9,D6*%
%TO.N,unconnected-(A1-D6-Pad9)*%
X39116000Y-44704000D03*
%TO.P,A1,10,D7*%
%TO.N,unconnected-(A1-D7-Pad10)*%
X39116000Y-47244000D03*
%TO.P,A1,11,D8*%
%TO.N,unconnected-(A1-D8-Pad11)*%
X39116000Y-49784000D03*
%TO.P,A1,12,D9*%
%TO.N,unconnected-(A1-D9-Pad12)*%
X39116000Y-52324000D03*
%TO.P,A1,13,D10*%
%TO.N,unconnected-(A1-D10-Pad13)*%
X39116000Y-54864000D03*
%TO.P,A1,14,D11*%
%TO.N,unconnected-(A1-D11-Pad14)*%
X39116000Y-57404000D03*
%TO.P,A1,15,D12*%
%TO.N,unconnected-(A1-D12-Pad15)*%
X39116000Y-59944000D03*
%TO.P,A1,16,D13*%
%TO.N,unconnected-(A1-D13-Pad16)*%
X54356000Y-59944000D03*
%TO.P,A1,17,3V3*%
%TO.N,Net-(A1-3V3)*%
X54356000Y-57404000D03*
%TO.P,A1,18,AREF*%
%TO.N,unconnected-(A1-AREF-Pad18)*%
X54356000Y-54864000D03*
%TO.P,A1,19,A0*%
%TO.N,Net-(A1-A0)*%
X54356000Y-52324000D03*
%TO.P,A1,20,A1*%
%TO.N,Net-(A1-A1)*%
X54356000Y-49784000D03*
%TO.P,A1,21,A2*%
%TO.N,unconnected-(A1-A2-Pad21)*%
X54356000Y-47244000D03*
%TO.P,A1,22,A3*%
%TO.N,unconnected-(A1-A3-Pad22)*%
X54356000Y-44704000D03*
%TO.P,A1,23,A4*%
%TO.N,Net-(A1-A4)*%
X54356000Y-42164000D03*
%TO.P,A1,24,A5*%
%TO.N,Net-(A1-A5)*%
X54356000Y-39624000D03*
%TO.P,A1,25,A6*%
%TO.N,unconnected-(A1-A6-Pad25)*%
X54356000Y-37084000D03*
%TO.P,A1,26,A7*%
%TO.N,unconnected-(A1-A7-Pad26)*%
X54356000Y-34544000D03*
%TO.P,A1,27,+5V*%
%TO.N,Net-(A1-+5V)*%
X54356000Y-32004000D03*
%TO.P,A1,28,~{RESET}*%
%TO.N,unconnected-(A1-~{RESET}-Pad28)*%
X54356000Y-29464000D03*
%TO.P,A1,29,GND*%
%TO.N,GND*%
X54356000Y-26924000D03*
%TO.P,A1,30,VIN*%
%TO.N,+5V*%
X54356000Y-24384000D03*
%TD*%
D12*
%TO.P,U6,1,Vcc*%
%TO.N,Net-(A1-3V3)*%
X30480000Y-55880000D03*
D13*
%TO.P,U6,2,GND*%
%TO.N,GND*%
X30480000Y-53340000D03*
%TO.P,U6,3,D0*%
%TO.N,Net-(A1-A1)*%
X30480000Y-50800000D03*
%TD*%
D14*
%TO.P,J1,1*%
%TO.N,+5V*%
X61008000Y-22988000D03*
D15*
%TO.P,J1,2*%
%TO.N,GND*%
X67008000Y-22988000D03*
D16*
%TO.P,J1,3*%
%TO.N,N/C*%
X64008000Y-18288000D03*
%TD*%
D17*
%TO.P,U3,1,Vcc*%
%TO.N,Net-(A1-+5V)*%
X30480000Y-38100000D03*
D13*
%TO.P,U3,2,GND*%
%TO.N,GND*%
X30480000Y-40640000D03*
%TO.P,U3,3,D0*%
%TO.N,Net-(A1-D4)*%
X30480000Y-43180000D03*
%TD*%
D12*
%TO.P,U5,1,Vcc*%
%TO.N,Net-(A1-+5V)*%
X63500000Y-55880000D03*
D13*
%TO.P,U5,2,GND*%
%TO.N,GND*%
X63500000Y-53340000D03*
%TO.P,U5,3,D0*%
%TO.N,unconnected-(U5-D0-Pad3)*%
X63500000Y-50800000D03*
%TO.P,U5,4,A0*%
%TO.N,Net-(A1-A0)*%
X63500000Y-48260000D03*
%TD*%
D18*
%TO.P,U2,1,Vcc*%
%TO.N,Net-(A1-+5V)*%
X30480000Y-26670000D03*
D13*
%TO.P,U2,2,DATA*%
%TO.N,Net-(A1-D2)*%
X30480000Y-29210000D03*
%TO.P,U2,3,GND*%
%TO.N,GND*%
X30480000Y-31750000D03*
%TD*%
D18*
%TO.P,U4,1,GND*%
%TO.N,GND*%
X63500000Y-30480000D03*
D13*
%TO.P,U4,2,VDD*%
%TO.N,Net-(A1-3V3)*%
X63500000Y-33020000D03*
%TO.P,U4,3,SCK*%
%TO.N,Net-(A1-A5)*%
X63500000Y-35560000D03*
%TO.P,U4,4,SDA*%
%TO.N,Net-(A1-A4)*%
X63500000Y-38100000D03*
%TD*%
D19*
%TO.N,GND*%
X41656000Y-31242000D03*
%TO.N,Net-(A1-3V3)*%
X60198000Y-53086000D03*
%TD*%
D20*
%TO.N,GND*%
X66040000Y-53340000D02*
X63500000Y-53340000D01*
X32258000Y-40640000D02*
X34544000Y-38354000D01*
X63500000Y-30480000D02*
X61214000Y-30480000D01*
X27432000Y-40640000D02*
X25400000Y-42672000D01*
X57658000Y-26924000D02*
X54356000Y-26924000D01*
X67818000Y-51562000D02*
X66040000Y-53340000D01*
X66929000Y-31369000D02*
X67818000Y-32258000D01*
X30480000Y-40640000D02*
X27432000Y-40640000D01*
X61214000Y-30480000D02*
X57658000Y-26924000D01*
X30480000Y-40640000D02*
X32258000Y-40640000D01*
X40894000Y-32004000D02*
X41656000Y-31242000D01*
X57658000Y-26924000D02*
X63072000Y-26924000D01*
X66040000Y-30480000D02*
X66929000Y-31369000D01*
X25400000Y-42672000D02*
X25400000Y-51308000D01*
X25400000Y-51308000D02*
X27432000Y-53340000D01*
X63072000Y-26924000D02*
X67008000Y-22988000D01*
X39116000Y-32004000D02*
X38100000Y-32004000D01*
X34544000Y-35560000D02*
X35814000Y-34290000D01*
X39116000Y-32004000D02*
X40894000Y-32004000D01*
X34544000Y-34290000D02*
X33020000Y-34290000D01*
X63500000Y-30480000D02*
X66040000Y-30480000D01*
X27432000Y-53340000D02*
X30480000Y-53340000D01*
X34544000Y-38354000D02*
X34544000Y-35560000D01*
X38100000Y-32004000D02*
X35814000Y-34290000D01*
X35814000Y-34290000D02*
X34544000Y-34290000D01*
X33020000Y-34290000D02*
X30480000Y-31750000D01*
X67818000Y-32258000D02*
X67818000Y-51562000D01*
D21*
%TO.N,Net-(A1-D2)*%
X34798000Y-27686000D02*
X34798000Y-22860000D01*
X41910000Y-21844000D02*
X43688000Y-23622000D01*
X35814000Y-21844000D02*
X41910000Y-21844000D01*
X41910000Y-34544000D02*
X39116000Y-34544000D01*
X30480000Y-29210000D02*
X33274000Y-29210000D01*
X43688000Y-23622000D02*
X43688000Y-32766000D01*
X34798000Y-22860000D02*
X35814000Y-21844000D01*
X43688000Y-32766000D02*
X41910000Y-34544000D01*
X33274000Y-29210000D02*
X34798000Y-27686000D01*
%TO.N,Net-(A1-D4)*%
X30480000Y-43180000D02*
X33020000Y-43180000D01*
X35560000Y-40640000D02*
X38100000Y-40640000D01*
X38100000Y-40640000D02*
X39116000Y-39624000D01*
X33020000Y-43180000D02*
X35560000Y-40640000D01*
D20*
%TO.N,Net-(A1-3V3)*%
X60198000Y-54610000D02*
X60198000Y-53086000D01*
X30480000Y-60452000D02*
X30480000Y-55880000D01*
X58674000Y-63246000D02*
X56388000Y-65532000D01*
X35560000Y-65532000D02*
X30480000Y-60452000D01*
X56388000Y-65532000D02*
X35560000Y-65532000D01*
X58674000Y-58674000D02*
X58674000Y-63246000D01*
X54356000Y-57404000D02*
X57404000Y-57404000D01*
X57404000Y-57404000D02*
X60198000Y-54610000D01*
X57404000Y-57404000D02*
X58674000Y-58674000D01*
D21*
%TO.N,Net-(A1-A0)*%
X60706000Y-48260000D02*
X56642000Y-52324000D01*
X56642000Y-52324000D02*
X54356000Y-52324000D01*
X63500000Y-48260000D02*
X60706000Y-48260000D01*
%TO.N,Net-(A1-A1)*%
X50800000Y-50800000D02*
X51816000Y-49784000D01*
X51816000Y-49784000D02*
X54356000Y-49784000D01*
X35560000Y-60960000D02*
X38100000Y-63500000D01*
X35560000Y-53340000D02*
X35560000Y-60960000D01*
X30480000Y-50800000D02*
X33020000Y-50800000D01*
X48260000Y-63500000D02*
X50800000Y-60960000D01*
X50800000Y-60960000D02*
X50800000Y-58420000D01*
X33020000Y-50800000D02*
X35560000Y-53340000D01*
X45720000Y-63500000D02*
X48260000Y-63500000D01*
X50800000Y-58420000D02*
X50800000Y-50800000D01*
X38100000Y-63500000D02*
X45720000Y-63500000D01*
%TO.N,Net-(A1-A4)*%
X60706000Y-38100000D02*
X56642000Y-42164000D01*
X56642000Y-42164000D02*
X54356000Y-42164000D01*
X63500000Y-38100000D02*
X60706000Y-38100000D01*
%TO.N,Net-(A1-A5)*%
X60452000Y-35560000D02*
X56388000Y-39624000D01*
X63500000Y-35560000D02*
X60452000Y-35560000D01*
X56388000Y-39624000D02*
X54356000Y-39624000D01*
D20*
%TO.N,Net-(A1-+5V)*%
X49276000Y-20574000D02*
X49276000Y-28956000D01*
X21590000Y-20066000D02*
X21590000Y-24384000D01*
X58674000Y-67818000D02*
X63500000Y-62992000D01*
X23876000Y-26670000D02*
X21590000Y-24384000D01*
X46482000Y-17780000D02*
X23876000Y-17780000D01*
X21590000Y-35560000D02*
X24130000Y-38100000D01*
X32512000Y-67818000D02*
X58674000Y-67818000D01*
X21590000Y-56896000D02*
X32512000Y-67818000D01*
X21590000Y-24384000D02*
X21590000Y-35560000D01*
X23876000Y-17780000D02*
X21590000Y-20066000D01*
X52324000Y-32004000D02*
X54356000Y-32004000D01*
X63500000Y-62992000D02*
X63500000Y-55880000D01*
X24130000Y-38100000D02*
X30480000Y-38100000D01*
X46482000Y-17780000D02*
X49276000Y-20574000D01*
X21590000Y-35560000D02*
X21590000Y-56896000D01*
X30480000Y-26670000D02*
X23876000Y-26670000D01*
X49276000Y-28956000D02*
X52324000Y-32004000D01*
%TO.N,+5V*%
X61008000Y-22988000D02*
X55752000Y-22988000D01*
X55752000Y-22988000D02*
X54356000Y-24384000D01*
%TD*%
M02*
