%TF.GenerationSoftware,KiCad,Pcbnew,7.0.5-7.0.5~ubuntu20.04.1*%
%TF.CreationDate,2023-06-14T09:42:23-05:00*%
%TF.ProjectId,Gotchiplant,476f7463-6869-4706-9c61-6e742e6b6963,rev?*%
%TF.SameCoordinates,Original*%
%TF.FileFunction,Legend,Top*%
%TF.FilePolarity,Positive*%
%FSLAX46Y46*%
G04 Gerber Fmt 4.6, Leading zero omitted, Abs format (unit mm)*
G04 Created by KiCad (PCBNEW 7.0.5-7.0.5~ubuntu20.04.1) date 2023-06-14 09:42:23*
%MOMM*%
%LPD*%
G01*
G04 APERTURE LIST*
%ADD10C,0.150000*%
%ADD11C,0.075000*%
%ADD12C,0.100000*%
%ADD13C,0.120000*%
G04 APERTURE END LIST*
D10*
%TO.C,A1*%
X46021714Y-19473104D02*
X46497904Y-19473104D01*
X45926476Y-19758819D02*
X46259809Y-18758819D01*
X46259809Y-18758819D02*
X46593142Y-19758819D01*
X47450285Y-19758819D02*
X46878857Y-19758819D01*
X47164571Y-19758819D02*
X47164571Y-18758819D01*
X47164571Y-18758819D02*
X47069333Y-18901676D01*
X47069333Y-18901676D02*
X46974095Y-18996914D01*
X46974095Y-18996914D02*
X46878857Y-19044533D01*
X45474095Y-59398819D02*
X45474095Y-60208342D01*
X45474095Y-60208342D02*
X45521714Y-60303580D01*
X45521714Y-60303580D02*
X45569333Y-60351200D01*
X45569333Y-60351200D02*
X45664571Y-60398819D01*
X45664571Y-60398819D02*
X45855047Y-60398819D01*
X45855047Y-60398819D02*
X45950285Y-60351200D01*
X45950285Y-60351200D02*
X45997904Y-60303580D01*
X45997904Y-60303580D02*
X46045523Y-60208342D01*
X46045523Y-60208342D02*
X46045523Y-59398819D01*
X46474095Y-60351200D02*
X46616952Y-60398819D01*
X46616952Y-60398819D02*
X46855047Y-60398819D01*
X46855047Y-60398819D02*
X46950285Y-60351200D01*
X46950285Y-60351200D02*
X46997904Y-60303580D01*
X46997904Y-60303580D02*
X47045523Y-60208342D01*
X47045523Y-60208342D02*
X47045523Y-60113104D01*
X47045523Y-60113104D02*
X46997904Y-60017866D01*
X46997904Y-60017866D02*
X46950285Y-59970247D01*
X46950285Y-59970247D02*
X46855047Y-59922628D01*
X46855047Y-59922628D02*
X46664571Y-59875009D01*
X46664571Y-59875009D02*
X46569333Y-59827390D01*
X46569333Y-59827390D02*
X46521714Y-59779771D01*
X46521714Y-59779771D02*
X46474095Y-59684533D01*
X46474095Y-59684533D02*
X46474095Y-59589295D01*
X46474095Y-59589295D02*
X46521714Y-59494057D01*
X46521714Y-59494057D02*
X46569333Y-59446438D01*
X46569333Y-59446438D02*
X46664571Y-59398819D01*
X46664571Y-59398819D02*
X46902666Y-59398819D01*
X46902666Y-59398819D02*
X47045523Y-59446438D01*
X47807428Y-59875009D02*
X47950285Y-59922628D01*
X47950285Y-59922628D02*
X47997904Y-59970247D01*
X47997904Y-59970247D02*
X48045523Y-60065485D01*
X48045523Y-60065485D02*
X48045523Y-60208342D01*
X48045523Y-60208342D02*
X47997904Y-60303580D01*
X47997904Y-60303580D02*
X47950285Y-60351200D01*
X47950285Y-60351200D02*
X47855047Y-60398819D01*
X47855047Y-60398819D02*
X47474095Y-60398819D01*
X47474095Y-60398819D02*
X47474095Y-59398819D01*
X47474095Y-59398819D02*
X47807428Y-59398819D01*
X47807428Y-59398819D02*
X47902666Y-59446438D01*
X47902666Y-59446438D02*
X47950285Y-59494057D01*
X47950285Y-59494057D02*
X47997904Y-59589295D01*
X47997904Y-59589295D02*
X47997904Y-59684533D01*
X47997904Y-59684533D02*
X47950285Y-59779771D01*
X47950285Y-59779771D02*
X47902666Y-59827390D01*
X47902666Y-59827390D02*
X47807428Y-59875009D01*
X47807428Y-59875009D02*
X47474095Y-59875009D01*
D11*
%TO.C,U6*%
X30827086Y-55155614D02*
X30727086Y-54855614D01*
X30727086Y-54855614D02*
X30627086Y-55155614D01*
X30398515Y-54869900D02*
X30427086Y-54855614D01*
X30427086Y-54855614D02*
X30484229Y-54855614D01*
X30484229Y-54855614D02*
X30512800Y-54869900D01*
X30512800Y-54869900D02*
X30527086Y-54884185D01*
X30527086Y-54884185D02*
X30541372Y-54912757D01*
X30541372Y-54912757D02*
X30541372Y-54998471D01*
X30541372Y-54998471D02*
X30527086Y-55027042D01*
X30527086Y-55027042D02*
X30512800Y-55041328D01*
X30512800Y-55041328D02*
X30484229Y-55055614D01*
X30484229Y-55055614D02*
X30427086Y-55055614D01*
X30427086Y-55055614D02*
X30398515Y-55041328D01*
X30141372Y-54869900D02*
X30169943Y-54855614D01*
X30169943Y-54855614D02*
X30227086Y-54855614D01*
X30227086Y-54855614D02*
X30255657Y-54869900D01*
X30255657Y-54869900D02*
X30269943Y-54884185D01*
X30269943Y-54884185D02*
X30284229Y-54912757D01*
X30284229Y-54912757D02*
X30284229Y-54998471D01*
X30284229Y-54998471D02*
X30269943Y-55027042D01*
X30269943Y-55027042D02*
X30255657Y-55041328D01*
X30255657Y-55041328D02*
X30227086Y-55055614D01*
X30227086Y-55055614D02*
X30169943Y-55055614D01*
X30169943Y-55055614D02*
X30141372Y-55041328D01*
X30709229Y-49805614D02*
X30709229Y-50105614D01*
X30709229Y-50105614D02*
X30637800Y-50105614D01*
X30637800Y-50105614D02*
X30594943Y-50091328D01*
X30594943Y-50091328D02*
X30566372Y-50062757D01*
X30566372Y-50062757D02*
X30552086Y-50034185D01*
X30552086Y-50034185D02*
X30537800Y-49977042D01*
X30537800Y-49977042D02*
X30537800Y-49934185D01*
X30537800Y-49934185D02*
X30552086Y-49877042D01*
X30552086Y-49877042D02*
X30566372Y-49848471D01*
X30566372Y-49848471D02*
X30594943Y-49819900D01*
X30594943Y-49819900D02*
X30637800Y-49805614D01*
X30637800Y-49805614D02*
X30709229Y-49805614D01*
X30352086Y-50105614D02*
X30323515Y-50105614D01*
X30323515Y-50105614D02*
X30294943Y-50091328D01*
X30294943Y-50091328D02*
X30280658Y-50077042D01*
X30280658Y-50077042D02*
X30266372Y-50048471D01*
X30266372Y-50048471D02*
X30252086Y-49991328D01*
X30252086Y-49991328D02*
X30252086Y-49919900D01*
X30252086Y-49919900D02*
X30266372Y-49862757D01*
X30266372Y-49862757D02*
X30280658Y-49834185D01*
X30280658Y-49834185D02*
X30294943Y-49819900D01*
X30294943Y-49819900D02*
X30323515Y-49805614D01*
X30323515Y-49805614D02*
X30352086Y-49805614D01*
X30352086Y-49805614D02*
X30380658Y-49819900D01*
X30380658Y-49819900D02*
X30394943Y-49834185D01*
X30394943Y-49834185D02*
X30409229Y-49862757D01*
X30409229Y-49862757D02*
X30423515Y-49919900D01*
X30423515Y-49919900D02*
X30423515Y-49991328D01*
X30423515Y-49991328D02*
X30409229Y-50048471D01*
X30409229Y-50048471D02*
X30394943Y-50077042D01*
X30394943Y-50077042D02*
X30380658Y-50091328D01*
X30380658Y-50091328D02*
X30352086Y-50105614D01*
X30702086Y-52666328D02*
X30730658Y-52680614D01*
X30730658Y-52680614D02*
X30773515Y-52680614D01*
X30773515Y-52680614D02*
X30816372Y-52666328D01*
X30816372Y-52666328D02*
X30844943Y-52637757D01*
X30844943Y-52637757D02*
X30859229Y-52609185D01*
X30859229Y-52609185D02*
X30873515Y-52552042D01*
X30873515Y-52552042D02*
X30873515Y-52509185D01*
X30873515Y-52509185D02*
X30859229Y-52452042D01*
X30859229Y-52452042D02*
X30844943Y-52423471D01*
X30844943Y-52423471D02*
X30816372Y-52394900D01*
X30816372Y-52394900D02*
X30773515Y-52380614D01*
X30773515Y-52380614D02*
X30744943Y-52380614D01*
X30744943Y-52380614D02*
X30702086Y-52394900D01*
X30702086Y-52394900D02*
X30687800Y-52409185D01*
X30687800Y-52409185D02*
X30687800Y-52509185D01*
X30687800Y-52509185D02*
X30744943Y-52509185D01*
X30559229Y-52380614D02*
X30559229Y-52680614D01*
X30559229Y-52680614D02*
X30387800Y-52380614D01*
X30387800Y-52380614D02*
X30387800Y-52680614D01*
X30244943Y-52380614D02*
X30244943Y-52680614D01*
X30244943Y-52680614D02*
X30173514Y-52680614D01*
X30173514Y-52680614D02*
X30130657Y-52666328D01*
X30130657Y-52666328D02*
X30102086Y-52637757D01*
X30102086Y-52637757D02*
X30087800Y-52609185D01*
X30087800Y-52609185D02*
X30073514Y-52552042D01*
X30073514Y-52552042D02*
X30073514Y-52509185D01*
X30073514Y-52509185D02*
X30087800Y-52452042D01*
X30087800Y-52452042D02*
X30102086Y-52423471D01*
X30102086Y-52423471D02*
X30130657Y-52394900D01*
X30130657Y-52394900D02*
X30173514Y-52380614D01*
X30173514Y-52380614D02*
X30244943Y-52380614D01*
D10*
%TO.C,J1*%
X69124666Y-16692819D02*
X69124666Y-17407104D01*
X69124666Y-17407104D02*
X69077047Y-17549961D01*
X69077047Y-17549961D02*
X68981809Y-17645200D01*
X68981809Y-17645200D02*
X68838952Y-17692819D01*
X68838952Y-17692819D02*
X68743714Y-17692819D01*
X70124666Y-17692819D02*
X69553238Y-17692819D01*
X69838952Y-17692819D02*
X69838952Y-16692819D01*
X69838952Y-16692819D02*
X69743714Y-16835676D01*
X69743714Y-16835676D02*
X69648476Y-16930914D01*
X69648476Y-16930914D02*
X69553238Y-16978533D01*
D11*
%TO.C,U3*%
X30275313Y-41355071D02*
X30246742Y-41340785D01*
X30246742Y-41340785D02*
X30203884Y-41340785D01*
X30203884Y-41340785D02*
X30161027Y-41355071D01*
X30161027Y-41355071D02*
X30132456Y-41383642D01*
X30132456Y-41383642D02*
X30118170Y-41412214D01*
X30118170Y-41412214D02*
X30103884Y-41469357D01*
X30103884Y-41469357D02*
X30103884Y-41512214D01*
X30103884Y-41512214D02*
X30118170Y-41569357D01*
X30118170Y-41569357D02*
X30132456Y-41597928D01*
X30132456Y-41597928D02*
X30161027Y-41626500D01*
X30161027Y-41626500D02*
X30203884Y-41640785D01*
X30203884Y-41640785D02*
X30232456Y-41640785D01*
X30232456Y-41640785D02*
X30275313Y-41626500D01*
X30275313Y-41626500D02*
X30289599Y-41612214D01*
X30289599Y-41612214D02*
X30289599Y-41512214D01*
X30289599Y-41512214D02*
X30232456Y-41512214D01*
X30418170Y-41640785D02*
X30418170Y-41340785D01*
X30418170Y-41340785D02*
X30589599Y-41640785D01*
X30589599Y-41640785D02*
X30589599Y-41340785D01*
X30732456Y-41640785D02*
X30732456Y-41340785D01*
X30732456Y-41340785D02*
X30803885Y-41340785D01*
X30803885Y-41340785D02*
X30846742Y-41355071D01*
X30846742Y-41355071D02*
X30875313Y-41383642D01*
X30875313Y-41383642D02*
X30889599Y-41412214D01*
X30889599Y-41412214D02*
X30903885Y-41469357D01*
X30903885Y-41469357D02*
X30903885Y-41512214D01*
X30903885Y-41512214D02*
X30889599Y-41569357D01*
X30889599Y-41569357D02*
X30875313Y-41597928D01*
X30875313Y-41597928D02*
X30846742Y-41626500D01*
X30846742Y-41626500D02*
X30803885Y-41640785D01*
X30803885Y-41640785D02*
X30732456Y-41640785D01*
X30151513Y-38851585D02*
X30251513Y-39151585D01*
X30251513Y-39151585D02*
X30351513Y-38851585D01*
X30580085Y-39137300D02*
X30551513Y-39151585D01*
X30551513Y-39151585D02*
X30494370Y-39151585D01*
X30494370Y-39151585D02*
X30465799Y-39137300D01*
X30465799Y-39137300D02*
X30451513Y-39123014D01*
X30451513Y-39123014D02*
X30437227Y-39094442D01*
X30437227Y-39094442D02*
X30437227Y-39008728D01*
X30437227Y-39008728D02*
X30451513Y-38980157D01*
X30451513Y-38980157D02*
X30465799Y-38965871D01*
X30465799Y-38965871D02*
X30494370Y-38951585D01*
X30494370Y-38951585D02*
X30551513Y-38951585D01*
X30551513Y-38951585D02*
X30580085Y-38965871D01*
X30837228Y-39137300D02*
X30808656Y-39151585D01*
X30808656Y-39151585D02*
X30751513Y-39151585D01*
X30751513Y-39151585D02*
X30722942Y-39137300D01*
X30722942Y-39137300D02*
X30708656Y-39123014D01*
X30708656Y-39123014D02*
X30694370Y-39094442D01*
X30694370Y-39094442D02*
X30694370Y-39008728D01*
X30694370Y-39008728D02*
X30708656Y-38980157D01*
X30708656Y-38980157D02*
X30722942Y-38965871D01*
X30722942Y-38965871D02*
X30751513Y-38951585D01*
X30751513Y-38951585D02*
X30808656Y-38951585D01*
X30808656Y-38951585D02*
X30837228Y-38965871D01*
X30270570Y-44180785D02*
X30270570Y-43880785D01*
X30270570Y-43880785D02*
X30341999Y-43880785D01*
X30341999Y-43880785D02*
X30384856Y-43895071D01*
X30384856Y-43895071D02*
X30413427Y-43923642D01*
X30413427Y-43923642D02*
X30427713Y-43952214D01*
X30427713Y-43952214D02*
X30441999Y-44009357D01*
X30441999Y-44009357D02*
X30441999Y-44052214D01*
X30441999Y-44052214D02*
X30427713Y-44109357D01*
X30427713Y-44109357D02*
X30413427Y-44137928D01*
X30413427Y-44137928D02*
X30384856Y-44166500D01*
X30384856Y-44166500D02*
X30341999Y-44180785D01*
X30341999Y-44180785D02*
X30270570Y-44180785D01*
X30627713Y-43880785D02*
X30656284Y-43880785D01*
X30656284Y-43880785D02*
X30684856Y-43895071D01*
X30684856Y-43895071D02*
X30699142Y-43909357D01*
X30699142Y-43909357D02*
X30713427Y-43937928D01*
X30713427Y-43937928D02*
X30727713Y-43995071D01*
X30727713Y-43995071D02*
X30727713Y-44066500D01*
X30727713Y-44066500D02*
X30713427Y-44123642D01*
X30713427Y-44123642D02*
X30699142Y-44152214D01*
X30699142Y-44152214D02*
X30684856Y-44166500D01*
X30684856Y-44166500D02*
X30656284Y-44180785D01*
X30656284Y-44180785D02*
X30627713Y-44180785D01*
X30627713Y-44180785D02*
X30599142Y-44166500D01*
X30599142Y-44166500D02*
X30584856Y-44152214D01*
X30584856Y-44152214D02*
X30570570Y-44123642D01*
X30570570Y-44123642D02*
X30556284Y-44066500D01*
X30556284Y-44066500D02*
X30556284Y-43995071D01*
X30556284Y-43995071D02*
X30570570Y-43937928D01*
X30570570Y-43937928D02*
X30584856Y-43909357D01*
X30584856Y-43909357D02*
X30599142Y-43895071D01*
X30599142Y-43895071D02*
X30627713Y-43880785D01*
D12*
%TO.C,U5*%
X64261904Y-58962580D02*
X64261904Y-58153057D01*
X64261904Y-58153057D02*
X64214285Y-58057819D01*
X64214285Y-58057819D02*
X64166666Y-58010200D01*
X64166666Y-58010200D02*
X64071428Y-57962580D01*
X64071428Y-57962580D02*
X63880952Y-57962580D01*
X63880952Y-57962580D02*
X63785714Y-58010200D01*
X63785714Y-58010200D02*
X63738095Y-58057819D01*
X63738095Y-58057819D02*
X63690476Y-58153057D01*
X63690476Y-58153057D02*
X63690476Y-58962580D01*
X62738095Y-58962580D02*
X63214285Y-58962580D01*
X63214285Y-58962580D02*
X63261904Y-58486390D01*
X63261904Y-58486390D02*
X63214285Y-58534009D01*
X63214285Y-58534009D02*
X63119047Y-58581628D01*
X63119047Y-58581628D02*
X62880952Y-58581628D01*
X62880952Y-58581628D02*
X62785714Y-58534009D01*
X62785714Y-58534009D02*
X62738095Y-58486390D01*
X62738095Y-58486390D02*
X62690476Y-58391152D01*
X62690476Y-58391152D02*
X62690476Y-58153057D01*
X62690476Y-58153057D02*
X62738095Y-58057819D01*
X62738095Y-58057819D02*
X62785714Y-58010200D01*
X62785714Y-58010200D02*
X62880952Y-57962580D01*
X62880952Y-57962580D02*
X63119047Y-57962580D01*
X63119047Y-57962580D02*
X63214285Y-58010200D01*
X63214285Y-58010200D02*
X63261904Y-58057819D01*
D11*
X63672915Y-47344928D02*
X63530058Y-47344928D01*
X63701486Y-47259214D02*
X63601486Y-47559214D01*
X63601486Y-47559214D02*
X63501486Y-47259214D01*
X63344343Y-47559214D02*
X63315772Y-47559214D01*
X63315772Y-47559214D02*
X63287200Y-47544928D01*
X63287200Y-47544928D02*
X63272915Y-47530642D01*
X63272915Y-47530642D02*
X63258629Y-47502071D01*
X63258629Y-47502071D02*
X63244343Y-47444928D01*
X63244343Y-47444928D02*
X63244343Y-47373500D01*
X63244343Y-47373500D02*
X63258629Y-47316357D01*
X63258629Y-47316357D02*
X63272915Y-47287785D01*
X63272915Y-47287785D02*
X63287200Y-47273500D01*
X63287200Y-47273500D02*
X63315772Y-47259214D01*
X63315772Y-47259214D02*
X63344343Y-47259214D01*
X63344343Y-47259214D02*
X63372915Y-47273500D01*
X63372915Y-47273500D02*
X63387200Y-47287785D01*
X63387200Y-47287785D02*
X63401486Y-47316357D01*
X63401486Y-47316357D02*
X63415772Y-47373500D01*
X63415772Y-47373500D02*
X63415772Y-47444928D01*
X63415772Y-47444928D02*
X63401486Y-47502071D01*
X63401486Y-47502071D02*
X63387200Y-47530642D01*
X63387200Y-47530642D02*
X63372915Y-47544928D01*
X63372915Y-47544928D02*
X63344343Y-47559214D01*
X63803086Y-55230014D02*
X63703086Y-54930014D01*
X63703086Y-54930014D02*
X63603086Y-55230014D01*
X63374515Y-54944300D02*
X63403086Y-54930014D01*
X63403086Y-54930014D02*
X63460229Y-54930014D01*
X63460229Y-54930014D02*
X63488800Y-54944300D01*
X63488800Y-54944300D02*
X63503086Y-54958585D01*
X63503086Y-54958585D02*
X63517372Y-54987157D01*
X63517372Y-54987157D02*
X63517372Y-55072871D01*
X63517372Y-55072871D02*
X63503086Y-55101442D01*
X63503086Y-55101442D02*
X63488800Y-55115728D01*
X63488800Y-55115728D02*
X63460229Y-55130014D01*
X63460229Y-55130014D02*
X63403086Y-55130014D01*
X63403086Y-55130014D02*
X63374515Y-55115728D01*
X63117372Y-54944300D02*
X63145943Y-54930014D01*
X63145943Y-54930014D02*
X63203086Y-54930014D01*
X63203086Y-54930014D02*
X63231657Y-54944300D01*
X63231657Y-54944300D02*
X63245943Y-54958585D01*
X63245943Y-54958585D02*
X63260229Y-54987157D01*
X63260229Y-54987157D02*
X63260229Y-55072871D01*
X63260229Y-55072871D02*
X63245943Y-55101442D01*
X63245943Y-55101442D02*
X63231657Y-55115728D01*
X63231657Y-55115728D02*
X63203086Y-55130014D01*
X63203086Y-55130014D02*
X63145943Y-55130014D01*
X63145943Y-55130014D02*
X63117372Y-55115728D01*
X63709429Y-49799214D02*
X63709429Y-50099214D01*
X63709429Y-50099214D02*
X63638000Y-50099214D01*
X63638000Y-50099214D02*
X63595143Y-50084928D01*
X63595143Y-50084928D02*
X63566572Y-50056357D01*
X63566572Y-50056357D02*
X63552286Y-50027785D01*
X63552286Y-50027785D02*
X63538000Y-49970642D01*
X63538000Y-49970642D02*
X63538000Y-49927785D01*
X63538000Y-49927785D02*
X63552286Y-49870642D01*
X63552286Y-49870642D02*
X63566572Y-49842071D01*
X63566572Y-49842071D02*
X63595143Y-49813500D01*
X63595143Y-49813500D02*
X63638000Y-49799214D01*
X63638000Y-49799214D02*
X63709429Y-49799214D01*
X63352286Y-50099214D02*
X63323715Y-50099214D01*
X63323715Y-50099214D02*
X63295143Y-50084928D01*
X63295143Y-50084928D02*
X63280858Y-50070642D01*
X63280858Y-50070642D02*
X63266572Y-50042071D01*
X63266572Y-50042071D02*
X63252286Y-49984928D01*
X63252286Y-49984928D02*
X63252286Y-49913500D01*
X63252286Y-49913500D02*
X63266572Y-49856357D01*
X63266572Y-49856357D02*
X63280858Y-49827785D01*
X63280858Y-49827785D02*
X63295143Y-49813500D01*
X63295143Y-49813500D02*
X63323715Y-49799214D01*
X63323715Y-49799214D02*
X63352286Y-49799214D01*
X63352286Y-49799214D02*
X63380858Y-49813500D01*
X63380858Y-49813500D02*
X63395143Y-49827785D01*
X63395143Y-49827785D02*
X63409429Y-49856357D01*
X63409429Y-49856357D02*
X63423715Y-49913500D01*
X63423715Y-49913500D02*
X63423715Y-49984928D01*
X63423715Y-49984928D02*
X63409429Y-50042071D01*
X63409429Y-50042071D02*
X63395143Y-50070642D01*
X63395143Y-50070642D02*
X63380858Y-50084928D01*
X63380858Y-50084928D02*
X63352286Y-50099214D01*
X63704686Y-52650328D02*
X63733258Y-52664614D01*
X63733258Y-52664614D02*
X63776115Y-52664614D01*
X63776115Y-52664614D02*
X63818972Y-52650328D01*
X63818972Y-52650328D02*
X63847543Y-52621757D01*
X63847543Y-52621757D02*
X63861829Y-52593185D01*
X63861829Y-52593185D02*
X63876115Y-52536042D01*
X63876115Y-52536042D02*
X63876115Y-52493185D01*
X63876115Y-52493185D02*
X63861829Y-52436042D01*
X63861829Y-52436042D02*
X63847543Y-52407471D01*
X63847543Y-52407471D02*
X63818972Y-52378900D01*
X63818972Y-52378900D02*
X63776115Y-52364614D01*
X63776115Y-52364614D02*
X63747543Y-52364614D01*
X63747543Y-52364614D02*
X63704686Y-52378900D01*
X63704686Y-52378900D02*
X63690400Y-52393185D01*
X63690400Y-52393185D02*
X63690400Y-52493185D01*
X63690400Y-52493185D02*
X63747543Y-52493185D01*
X63561829Y-52364614D02*
X63561829Y-52664614D01*
X63561829Y-52664614D02*
X63390400Y-52364614D01*
X63390400Y-52364614D02*
X63390400Y-52664614D01*
X63247543Y-52364614D02*
X63247543Y-52664614D01*
X63247543Y-52664614D02*
X63176114Y-52664614D01*
X63176114Y-52664614D02*
X63133257Y-52650328D01*
X63133257Y-52650328D02*
X63104686Y-52621757D01*
X63104686Y-52621757D02*
X63090400Y-52593185D01*
X63090400Y-52593185D02*
X63076114Y-52536042D01*
X63076114Y-52536042D02*
X63076114Y-52493185D01*
X63076114Y-52493185D02*
X63090400Y-52436042D01*
X63090400Y-52436042D02*
X63104686Y-52407471D01*
X63104686Y-52407471D02*
X63133257Y-52378900D01*
X63133257Y-52378900D02*
X63176114Y-52364614D01*
X63176114Y-52364614D02*
X63247543Y-52364614D01*
%TO.C,U2*%
X30249913Y-32439671D02*
X30221342Y-32425385D01*
X30221342Y-32425385D02*
X30178484Y-32425385D01*
X30178484Y-32425385D02*
X30135627Y-32439671D01*
X30135627Y-32439671D02*
X30107056Y-32468242D01*
X30107056Y-32468242D02*
X30092770Y-32496814D01*
X30092770Y-32496814D02*
X30078484Y-32553957D01*
X30078484Y-32553957D02*
X30078484Y-32596814D01*
X30078484Y-32596814D02*
X30092770Y-32653957D01*
X30092770Y-32653957D02*
X30107056Y-32682528D01*
X30107056Y-32682528D02*
X30135627Y-32711100D01*
X30135627Y-32711100D02*
X30178484Y-32725385D01*
X30178484Y-32725385D02*
X30207056Y-32725385D01*
X30207056Y-32725385D02*
X30249913Y-32711100D01*
X30249913Y-32711100D02*
X30264199Y-32696814D01*
X30264199Y-32696814D02*
X30264199Y-32596814D01*
X30264199Y-32596814D02*
X30207056Y-32596814D01*
X30392770Y-32725385D02*
X30392770Y-32425385D01*
X30392770Y-32425385D02*
X30564199Y-32725385D01*
X30564199Y-32725385D02*
X30564199Y-32425385D01*
X30707056Y-32725385D02*
X30707056Y-32425385D01*
X30707056Y-32425385D02*
X30778485Y-32425385D01*
X30778485Y-32425385D02*
X30821342Y-32439671D01*
X30821342Y-32439671D02*
X30849913Y-32468242D01*
X30849913Y-32468242D02*
X30864199Y-32496814D01*
X30864199Y-32496814D02*
X30878485Y-32553957D01*
X30878485Y-32553957D02*
X30878485Y-32596814D01*
X30878485Y-32596814D02*
X30864199Y-32653957D01*
X30864199Y-32653957D02*
X30849913Y-32682528D01*
X30849913Y-32682528D02*
X30821342Y-32711100D01*
X30821342Y-32711100D02*
X30778485Y-32725385D01*
X30778485Y-32725385D02*
X30707056Y-32725385D01*
X30092770Y-30185385D02*
X30092770Y-29885385D01*
X30092770Y-29885385D02*
X30164199Y-29885385D01*
X30164199Y-29885385D02*
X30207056Y-29899671D01*
X30207056Y-29899671D02*
X30235627Y-29928242D01*
X30235627Y-29928242D02*
X30249913Y-29956814D01*
X30249913Y-29956814D02*
X30264199Y-30013957D01*
X30264199Y-30013957D02*
X30264199Y-30056814D01*
X30264199Y-30056814D02*
X30249913Y-30113957D01*
X30249913Y-30113957D02*
X30235627Y-30142528D01*
X30235627Y-30142528D02*
X30207056Y-30171100D01*
X30207056Y-30171100D02*
X30164199Y-30185385D01*
X30164199Y-30185385D02*
X30092770Y-30185385D01*
X30378484Y-30099671D02*
X30521342Y-30099671D01*
X30349913Y-30185385D02*
X30449913Y-29885385D01*
X30449913Y-29885385D02*
X30549913Y-30185385D01*
X30607056Y-29885385D02*
X30778485Y-29885385D01*
X30692770Y-30185385D02*
X30692770Y-29885385D01*
X30864198Y-30099671D02*
X31007056Y-30099671D01*
X30835627Y-30185385D02*
X30935627Y-29885385D01*
X30935627Y-29885385D02*
X31035627Y-30185385D01*
X30049913Y-27345385D02*
X30149913Y-27645385D01*
X30149913Y-27645385D02*
X30249913Y-27345385D01*
X30478485Y-27631100D02*
X30449913Y-27645385D01*
X30449913Y-27645385D02*
X30392770Y-27645385D01*
X30392770Y-27645385D02*
X30364199Y-27631100D01*
X30364199Y-27631100D02*
X30349913Y-27616814D01*
X30349913Y-27616814D02*
X30335627Y-27588242D01*
X30335627Y-27588242D02*
X30335627Y-27502528D01*
X30335627Y-27502528D02*
X30349913Y-27473957D01*
X30349913Y-27473957D02*
X30364199Y-27459671D01*
X30364199Y-27459671D02*
X30392770Y-27445385D01*
X30392770Y-27445385D02*
X30449913Y-27445385D01*
X30449913Y-27445385D02*
X30478485Y-27459671D01*
X30735628Y-27631100D02*
X30707056Y-27645385D01*
X30707056Y-27645385D02*
X30649913Y-27645385D01*
X30649913Y-27645385D02*
X30621342Y-27631100D01*
X30621342Y-27631100D02*
X30607056Y-27616814D01*
X30607056Y-27616814D02*
X30592770Y-27588242D01*
X30592770Y-27588242D02*
X30592770Y-27502528D01*
X30592770Y-27502528D02*
X30607056Y-27473957D01*
X30607056Y-27473957D02*
X30621342Y-27459671D01*
X30621342Y-27459671D02*
X30649913Y-27445385D01*
X30649913Y-27445385D02*
X30707056Y-27445385D01*
X30707056Y-27445385D02*
X30735628Y-27459671D01*
D12*
%TO.C,U4*%
X62738095Y-27397419D02*
X62738095Y-28206942D01*
X62738095Y-28206942D02*
X62785714Y-28302180D01*
X62785714Y-28302180D02*
X62833333Y-28349800D01*
X62833333Y-28349800D02*
X62928571Y-28397419D01*
X62928571Y-28397419D02*
X63119047Y-28397419D01*
X63119047Y-28397419D02*
X63214285Y-28349800D01*
X63214285Y-28349800D02*
X63261904Y-28302180D01*
X63261904Y-28302180D02*
X63309523Y-28206942D01*
X63309523Y-28206942D02*
X63309523Y-27397419D01*
X64214285Y-27730752D02*
X64214285Y-28397419D01*
X63976190Y-27349800D02*
X63738095Y-28064085D01*
X63738095Y-28064085D02*
X64357142Y-28064085D01*
D11*
X63149284Y-36521100D02*
X63192142Y-36535385D01*
X63192142Y-36535385D02*
X63263570Y-36535385D01*
X63263570Y-36535385D02*
X63292142Y-36521100D01*
X63292142Y-36521100D02*
X63306427Y-36506814D01*
X63306427Y-36506814D02*
X63320713Y-36478242D01*
X63320713Y-36478242D02*
X63320713Y-36449671D01*
X63320713Y-36449671D02*
X63306427Y-36421100D01*
X63306427Y-36421100D02*
X63292142Y-36406814D01*
X63292142Y-36406814D02*
X63263570Y-36392528D01*
X63263570Y-36392528D02*
X63206427Y-36378242D01*
X63206427Y-36378242D02*
X63177856Y-36363957D01*
X63177856Y-36363957D02*
X63163570Y-36349671D01*
X63163570Y-36349671D02*
X63149284Y-36321100D01*
X63149284Y-36321100D02*
X63149284Y-36292528D01*
X63149284Y-36292528D02*
X63163570Y-36263957D01*
X63163570Y-36263957D02*
X63177856Y-36249671D01*
X63177856Y-36249671D02*
X63206427Y-36235385D01*
X63206427Y-36235385D02*
X63277856Y-36235385D01*
X63277856Y-36235385D02*
X63320713Y-36249671D01*
X63620713Y-36506814D02*
X63606427Y-36521100D01*
X63606427Y-36521100D02*
X63563570Y-36535385D01*
X63563570Y-36535385D02*
X63534998Y-36535385D01*
X63534998Y-36535385D02*
X63492141Y-36521100D01*
X63492141Y-36521100D02*
X63463570Y-36492528D01*
X63463570Y-36492528D02*
X63449284Y-36463957D01*
X63449284Y-36463957D02*
X63434998Y-36406814D01*
X63434998Y-36406814D02*
X63434998Y-36363957D01*
X63434998Y-36363957D02*
X63449284Y-36306814D01*
X63449284Y-36306814D02*
X63463570Y-36278242D01*
X63463570Y-36278242D02*
X63492141Y-36249671D01*
X63492141Y-36249671D02*
X63534998Y-36235385D01*
X63534998Y-36235385D02*
X63563570Y-36235385D01*
X63563570Y-36235385D02*
X63606427Y-36249671D01*
X63606427Y-36249671D02*
X63620713Y-36263957D01*
X63749284Y-36535385D02*
X63749284Y-36235385D01*
X63920713Y-36535385D02*
X63792141Y-36363957D01*
X63920713Y-36235385D02*
X63749284Y-36406814D01*
X63295313Y-31144271D02*
X63266742Y-31129985D01*
X63266742Y-31129985D02*
X63223884Y-31129985D01*
X63223884Y-31129985D02*
X63181027Y-31144271D01*
X63181027Y-31144271D02*
X63152456Y-31172842D01*
X63152456Y-31172842D02*
X63138170Y-31201414D01*
X63138170Y-31201414D02*
X63123884Y-31258557D01*
X63123884Y-31258557D02*
X63123884Y-31301414D01*
X63123884Y-31301414D02*
X63138170Y-31358557D01*
X63138170Y-31358557D02*
X63152456Y-31387128D01*
X63152456Y-31387128D02*
X63181027Y-31415700D01*
X63181027Y-31415700D02*
X63223884Y-31429985D01*
X63223884Y-31429985D02*
X63252456Y-31429985D01*
X63252456Y-31429985D02*
X63295313Y-31415700D01*
X63295313Y-31415700D02*
X63309599Y-31401414D01*
X63309599Y-31401414D02*
X63309599Y-31301414D01*
X63309599Y-31301414D02*
X63252456Y-31301414D01*
X63438170Y-31429985D02*
X63438170Y-31129985D01*
X63438170Y-31129985D02*
X63609599Y-31429985D01*
X63609599Y-31429985D02*
X63609599Y-31129985D01*
X63752456Y-31429985D02*
X63752456Y-31129985D01*
X63752456Y-31129985D02*
X63823885Y-31129985D01*
X63823885Y-31129985D02*
X63866742Y-31144271D01*
X63866742Y-31144271D02*
X63895313Y-31172842D01*
X63895313Y-31172842D02*
X63909599Y-31201414D01*
X63909599Y-31201414D02*
X63923885Y-31258557D01*
X63923885Y-31258557D02*
X63923885Y-31301414D01*
X63923885Y-31301414D02*
X63909599Y-31358557D01*
X63909599Y-31358557D02*
X63895313Y-31387128D01*
X63895313Y-31387128D02*
X63866742Y-31415700D01*
X63866742Y-31415700D02*
X63823885Y-31429985D01*
X63823885Y-31429985D02*
X63752456Y-31429985D01*
X63174684Y-39061100D02*
X63217542Y-39075385D01*
X63217542Y-39075385D02*
X63288970Y-39075385D01*
X63288970Y-39075385D02*
X63317542Y-39061100D01*
X63317542Y-39061100D02*
X63331827Y-39046814D01*
X63331827Y-39046814D02*
X63346113Y-39018242D01*
X63346113Y-39018242D02*
X63346113Y-38989671D01*
X63346113Y-38989671D02*
X63331827Y-38961100D01*
X63331827Y-38961100D02*
X63317542Y-38946814D01*
X63317542Y-38946814D02*
X63288970Y-38932528D01*
X63288970Y-38932528D02*
X63231827Y-38918242D01*
X63231827Y-38918242D02*
X63203256Y-38903957D01*
X63203256Y-38903957D02*
X63188970Y-38889671D01*
X63188970Y-38889671D02*
X63174684Y-38861100D01*
X63174684Y-38861100D02*
X63174684Y-38832528D01*
X63174684Y-38832528D02*
X63188970Y-38803957D01*
X63188970Y-38803957D02*
X63203256Y-38789671D01*
X63203256Y-38789671D02*
X63231827Y-38775385D01*
X63231827Y-38775385D02*
X63303256Y-38775385D01*
X63303256Y-38775385D02*
X63346113Y-38789671D01*
X63474684Y-39075385D02*
X63474684Y-38775385D01*
X63474684Y-38775385D02*
X63546113Y-38775385D01*
X63546113Y-38775385D02*
X63588970Y-38789671D01*
X63588970Y-38789671D02*
X63617541Y-38818242D01*
X63617541Y-38818242D02*
X63631827Y-38846814D01*
X63631827Y-38846814D02*
X63646113Y-38903957D01*
X63646113Y-38903957D02*
X63646113Y-38946814D01*
X63646113Y-38946814D02*
X63631827Y-39003957D01*
X63631827Y-39003957D02*
X63617541Y-39032528D01*
X63617541Y-39032528D02*
X63588970Y-39061100D01*
X63588970Y-39061100D02*
X63546113Y-39075385D01*
X63546113Y-39075385D02*
X63474684Y-39075385D01*
X63760398Y-38989671D02*
X63903256Y-38989671D01*
X63731827Y-39075385D02*
X63831827Y-38775385D01*
X63831827Y-38775385D02*
X63931827Y-39075385D01*
X63196913Y-33695385D02*
X63296913Y-33995385D01*
X63296913Y-33995385D02*
X63396913Y-33695385D01*
X63496913Y-33995385D02*
X63496913Y-33695385D01*
X63496913Y-33695385D02*
X63568342Y-33695385D01*
X63568342Y-33695385D02*
X63611199Y-33709671D01*
X63611199Y-33709671D02*
X63639770Y-33738242D01*
X63639770Y-33738242D02*
X63654056Y-33766814D01*
X63654056Y-33766814D02*
X63668342Y-33823957D01*
X63668342Y-33823957D02*
X63668342Y-33866814D01*
X63668342Y-33866814D02*
X63654056Y-33923957D01*
X63654056Y-33923957D02*
X63639770Y-33952528D01*
X63639770Y-33952528D02*
X63611199Y-33981100D01*
X63611199Y-33981100D02*
X63568342Y-33995385D01*
X63568342Y-33995385D02*
X63496913Y-33995385D01*
X63796913Y-33995385D02*
X63796913Y-33695385D01*
X63796913Y-33695385D02*
X63868342Y-33695385D01*
X63868342Y-33695385D02*
X63911199Y-33709671D01*
X63911199Y-33709671D02*
X63939770Y-33738242D01*
X63939770Y-33738242D02*
X63954056Y-33766814D01*
X63954056Y-33766814D02*
X63968342Y-33823957D01*
X63968342Y-33823957D02*
X63968342Y-33866814D01*
X63968342Y-33866814D02*
X63954056Y-33923957D01*
X63954056Y-33923957D02*
X63939770Y-33952528D01*
X63939770Y-33952528D02*
X63911199Y-33981100D01*
X63911199Y-33981100D02*
X63868342Y-33995385D01*
X63868342Y-33995385D02*
X63796913Y-33995385D01*
D13*
%TO.C,A1*%
X37716000Y-20444000D02*
X37716000Y-23114000D01*
X37716000Y-25654000D02*
X37716000Y-63884000D01*
X37716000Y-63884000D02*
X42796000Y-63884000D01*
X40386000Y-23114000D02*
X37716000Y-23114000D01*
X40386000Y-25654000D02*
X37716000Y-25654000D01*
X40386000Y-25654000D02*
X40386000Y-23114000D01*
X40386000Y-25654000D02*
X40386000Y-61214000D01*
X40386000Y-61214000D02*
X37716000Y-61214000D01*
X42796000Y-56004000D02*
X50676000Y-56004000D01*
X42796000Y-66424000D02*
X42796000Y-56004000D01*
X50676000Y-56004000D02*
X50676000Y-66424000D01*
X50676000Y-66424000D02*
X42796000Y-66424000D01*
X53086000Y-23114000D02*
X53086000Y-61214000D01*
X53086000Y-23114000D02*
X55756000Y-23114000D01*
X53086000Y-61214000D02*
X55756000Y-61214000D01*
X55756000Y-20444000D02*
X37716000Y-20444000D01*
X55756000Y-63884000D02*
X50676000Y-63884000D01*
X55756000Y-63884000D02*
X55756000Y-20444000D01*
D12*
%TO.C,U6*%
X31750000Y-57150000D02*
X29210000Y-57150000D01*
X29210000Y-57150000D02*
X29210000Y-49530000D01*
X29210000Y-49530000D02*
X31750000Y-49530000D01*
X31750000Y-49530000D02*
X31750000Y-57150000D01*
D13*
%TO.C,J1*%
X74808000Y-27588000D02*
X60108000Y-27588000D01*
X74808000Y-18388000D02*
X74808000Y-27588000D01*
X66008000Y-18388000D02*
X74808000Y-18388000D01*
X60958000Y-27788000D02*
X59908000Y-27788000D01*
X60108000Y-27588000D02*
X60108000Y-24988000D01*
X60108000Y-21088000D02*
X60108000Y-18388000D01*
X60108000Y-18388000D02*
X62008000Y-18388000D01*
X59908000Y-26738000D02*
X59908000Y-27788000D01*
D12*
%TO.C,U3*%
X29210000Y-36830000D02*
X31750000Y-36830000D01*
X31750000Y-36830000D02*
X31750000Y-44450000D01*
X31750000Y-44450000D02*
X29210000Y-44450000D01*
X29210000Y-44450000D02*
X29210000Y-36830000D01*
%TO.C,U5*%
X64770000Y-57150000D02*
X62230000Y-57150000D01*
X62230000Y-57150000D02*
X62230000Y-46990000D01*
X62230000Y-46990000D02*
X64770000Y-46990000D01*
X64770000Y-46990000D02*
X64770000Y-57150000D01*
%TO.C,U2*%
X29210000Y-25400000D02*
X31750000Y-25400000D01*
X31750000Y-25400000D02*
X31750000Y-33020000D01*
X31750000Y-33020000D02*
X29210000Y-33020000D01*
X29210000Y-33020000D02*
X29210000Y-25400000D01*
%TO.C,U4*%
X62230000Y-29210000D02*
X64770000Y-29210000D01*
X64770000Y-29210000D02*
X64770000Y-39370000D01*
X64770000Y-39370000D02*
X62230000Y-39370000D01*
X62230000Y-39370000D02*
X62230000Y-29210000D01*
%TD*%
M02*
